# xmcd
#
# Track frame offsets:
#	150
#	12724
#	21530
#	34016
#	47458
#	54558
#	67210
#	79511
#	91946
#	105456
#	119005
#	126285
#	133547
#	144187
#
# Disc length: 2050 seconds
#
# Revision: 1
# Processed by: cddbd v1.5.2PL0 Copyright (c) Steve Scherf et al.
# Submitted via: audiograbber 1.83.01
#
DISCID=c108000e
DTITLE=Johnny Paycheck - Gospeltime In My Fashion
DYEAR=1967
DGENRE=Country
TTITLE0=I'm On My Way Home
TTITLE1=I'm Better Off
TTITLE2=Black Sheep
TTITLE3=Every Minute I Want Jesus
TTITLE4=I'm Gonna Tell The World
TTITLE5=Her Crown She Has Won
TTITLE6=Almost Persuaded
TTITLE7=The Old Rugged Cross
TTITLE8=In The Garden
TTITLE9=Just A Closer Walk With Thee
TTITLE10=When The Roll Is Called Up Yonder
TTITLE11=Old Time Religion
TTITLE12=Amazing Grace
TTITLE13=Jesus Loves Me
EXTD=
EXTT0=
EXTT1=
EXTT2=
EXTT3=
EXTT4=
EXTT5=
EXTT6=
EXTT7=
EXTT8=
EXTT9=
EXTT10=
EXTT11=
EXTT12=
EXTT13=
PLAYORDER=
